<?xml version="1.0" encoding="UTF-8" standalone="no"?>
<svg
   xmlns:dc="http://purl.org/dc/elements/1.1/"
   xmlns:cc="http://creativecommons.org/ns#"
   xmlns:rdf="http://www.w3.org/1999/02/22-rdf-syntax-ns#"
   xmlns:svg="http://www.w3.org/2000/svg"
   xmlns="http://www.w3.org/2000/svg"
   xmlns:sodipodi="http://sodipodi.sourceforge.net/DTD/sodipodi-0.dtd"
   xmlns:inkscape="http://www.inkscape.org/namespaces/inkscape"
   width="800pt"
   height="600pt"
   viewBox="0 0 799.99998 599.99999"
   version="1.2"
   id="svg4564"
   sodipodi:docname="ASTRON_VO_LOGO.svg"
   inkscape:version="0.92.4 (unknown)">
  <metadata
     id="metadata4568">
    <rdf:RDF>
      <cc:Work
         rdf:about="">
        <dc:format>image/svg+xml</dc:format>
        <dc:type
           rdf:resource="http://purl.org/dc/dcmitype/StillImage" />
        <dc:title></dc:title>
      </cc:Work>
    </rdf:RDF>
  </metadata>
  <sodipodi:namedview
     pagecolor="#ffffff"
     bordercolor="#666666"
     borderopacity="1"
     objecttolerance="10"
     gridtolerance="10"
     guidetolerance="10"
     inkscape:pageopacity="0"
     inkscape:pageshadow="2"
     inkscape:window-width="1920"
     inkscape:window-height="994"
     id="namedview4566"
     showgrid="false"
     inkscape:zoom="0.56209336"
     inkscape:cx="348.68906"
     inkscape:cy="361.87398"
     inkscape:window-x="0"
     inkscape:window-y="27"
     inkscape:window-maximized="1"
     inkscape:current-layer="svg4564" />
  <defs
     id="defs4543">
    <clipPath
       id="clip1">
      <path
         d="m 132,14 h 20.01953 V 39 H 132 Z m 0,0"
         id="path4537"
         inkscape:connector-curvature="0" />
    </clipPath>
    <clipPath
       id="clip2">
      <path
         d="M 79,8 H 91 V 45.128906 H 79 Z m 0,0"
         id="path4540"
         inkscape:connector-curvature="0" />
    </clipPath>
    <clipPath
       id="clip1-9">
      <path
         id="path4759"
         d="M 132 14 L 152.019531 14 L 152.019531 39 L 132 39 Z M 132 14 " />
    </clipPath>
    <clipPath
       id="clip2-0">
      <path
         id="path4762"
         d="M 79 8 L 91 8 L 91 45.128906 L 79 45.128906 Z M 79 8 " />
    </clipPath>
  </defs>
  <g
     id="g4580"
     transform="matrix(13.589095,0,0,13.589095,-131.11879,103.23969)">
    <g
       transform="matrix(0.47543803,0,0,0.47543803,5.9945307,2.9395351)"
       id="surface9041">
      <path
         inkscape:connector-curvature="0"
         id="path4547"
         d="m 92.354789,56.988725 c -17.456516,0 -29.90077,-11.983356 -29.90077,-29.35346 0,-19.4345437 14.806339,-30.7553587 30.092799,-30.7553587 17.552562,0 30.006402,11.983356 30.006402,29.3438577 0,19.444146 -14.81595,30.764961 -30.198431,30.764961 m 0.19198,-49.7290057 c -9.621246,0 -17.082021,7.5472107 -17.082021,20.1931067 0,11.608875 7.55679,19.156086 16.889992,19.156086 9.71726,0 17.17806,-7.547211 17.17806,-20.193107 0,-11.608875 -7.5472,-19.1560857 -16.986031,-19.1560857"
         style="fill:#194c9c;fill-opacity:1;fill-rule:nonzero;stroke:none;stroke-width:2.45812416" />
      <g
         style="clip-rule:nonzero"
         id="g4551"
         clip-path="url(#clip1)" />
      <path
         inkscape:connector-curvature="0"
         id="path4553"
         d="m 95.785156,27.675781 c 2.34375,-0.726562 4.222654,-3.375 4.222654,-6.292969 0,-4.332031 -3.281248,-6.804687 -8.343748,-6.804687 -1.367187,0 -1.921874,0.136719 -1.941406,0.136719 -0.589844,1.171875 -0.945312,2.242187 -1.257812,3.449218 0.496094,-0.05469 1.082031,-0.117187 2.230468,-0.117187 2.746094,0 4.324219,1.253906 4.324219,3.453125 0,2.300781 -1.191406,3.914062 -3.953125,3.914062 h -3.738281 c -0.246094,1.21875 -0.253906,2.472657 0,3.796876 h 4.042969 l 5.722656,9.0625 h 5.83203 L 95.785156,27.675781"
         style="fill:#194c9c;fill-opacity:1;fill-rule:nonzero;stroke:none" />
      <g
         style="clip-rule:nonzero"
         id="g4557"
         clip-path="url(#clip2)">
        <path
           inkscape:connector-curvature="0"
           id="path4555"
           d="M 87.035156,45.128906 C 83.003906,41.375 79.699219,33.421875 79.699219,26.992188 c 0,-6.472657 2.984375,-14.425782 7.335937,-18.539063 h 3.429688 c -4.273438,5.632813 -6.289063,12.066406 -6.289063,18.179687 0,6.070313 2.015625,12.863282 6.289063,18.496094 h -3.429688"
           style="fill:#1ca6e6;fill-opacity:1;fill-rule:nonzero;stroke:none" />
      </g>
    </g>
  </g>
  <g
     aria-label="V"
     transform="matrix(9.217435,0,0,8.4934319,18.800861,7.2118404)"
     style="font-style:normal;font-variant:normal;font-weight:normal;font-stretch:normal;font-size:59.76059723px;line-height:1.25;font-family:'Martel Sans';-inkscape-font-specification:'Martel Sans';letter-spacing:0px;word-spacing:0px;fill:#194c9c;fill-opacity:1;stroke:none;stroke-width:2.49002576"
     id="text4572">
    <path
       d="M 31.669663,1.7528467 20.852995,33.784527 9.9765658,1.7528467 H 0.35510968 L 15.952626,42.748616 h 9.681216 L 41.171598,1.7528467 Z"
       style="fill:#194c9c;fill-opacity:1;stroke-width:2.49002576"
       id="path4643"
       inkscape:connector-curvature="0" />
  </g>
  <g
     id="surface971926"
     transform="matrix(2.5219559,0,0,2.5219559,392.30877,2.1312303)">
    <path
       id="path4767"
       d="m 71.285156,18.773438 v 19.5 h -5.105468 v -19.5 h -6.5625 V 14.628906 H 77.8125 v 4.144532 h -6.527344"
       style="fill:#194c9c;fill-opacity:1;fill-rule:nonzero;stroke:none"
       inkscape:connector-curvature="0" />
    <path
       id="path4769"
       d="m 116.07422,38.734375 c -7.10156,0 -12.16406,-4.875 -12.16406,-11.941406 0,-7.90625 6.02343,-12.511719 12.24218,-12.511719 7.14063,0 12.20703,4.875 12.20703,11.9375 0,7.910156 -6.02734,12.515625 -12.28515,12.515625 m 0.0781,-20.230469 c -3.91406,0 -6.94921,3.070313 -6.94921,8.214844 0,4.722656 3.07421,7.792969 6.87109,7.792969 3.95312,0 6.98828,-3.070313 6.98828,-8.214844 0,-4.722656 -3.07031,-7.792969 -6.91016,-7.792969"
       style="fill:#194c9c;fill-opacity:1;fill-rule:nonzero;stroke:none"
       inkscape:connector-curvature="0" />
    <g
       id="g4773"
       clip-path="url(#clip1-9)"
       style="clip-rule:nonzero">
      <path
         id="path4771"
         d="m 147.07422,38.273438 -9.67578,-15.894532 v 15.894532 h -5.02735 V 14.628906 h 5.22266 l 9.44141,15.8125 v -15.8125 h 4.98828 v 23.644532 h -4.94922"
         style="fill:#194c9c;fill-opacity:1;fill-rule:nonzero;stroke:none"
         inkscape:connector-curvature="0" />
    </g>
    <path
       id="path4775"
       d="m 95.785156,27.675781 c 2.34375,-0.726562 4.222654,-3.375 4.222654,-6.292969 0,-4.332031 -3.281248,-6.804687 -8.343748,-6.804687 -1.367187,0 -1.921874,0.136719 -1.941406,0.136719 -0.589844,1.171875 -0.945312,2.242187 -1.257812,3.449218 0.496094,-0.05469 1.082031,-0.117187 2.230468,-0.117187 2.746094,0 4.324219,1.253906 4.324219,3.453125 0,2.300781 -1.191406,3.914062 -3.953125,3.914062 h -3.738281 c -0.246094,1.21875 -0.253906,2.472657 0,3.796876 h 4.042969 l 5.722656,9.0625 h 5.83203 L 95.785156,27.675781"
       style="fill:#194c9c;fill-opacity:1;fill-rule:nonzero;stroke:none"
       inkscape:connector-curvature="0" />
    <g
       id="g4779"
       clip-path="url(#clip2-0)"
       style="clip-rule:nonzero">
      <path
         id="path4777"
         d="M 87.035156,45.128906 C 83.003906,41.375 79.699219,33.421875 79.699219,26.992188 c 0,-6.472657 2.984375,-14.425782 7.335937,-18.539063 h 3.429688 c -4.273438,5.632813 -6.289063,12.066406 -6.289063,18.179687 0,6.070313 2.015625,12.863282 6.289063,18.496094 h -3.429688"
         style="fill:#1ca6e6;fill-opacity:1;fill-rule:nonzero;stroke:none"
         inkscape:connector-curvature="0" />
    </g>
    <path
       id="path4781"
       d="M 52.015625,24.566406 C 48.523438,22.765625 47.0625,22.074219 47.0625,20.652344 c 0,-1.265625 1.304688,-2.109375 2.957031,-2.109375 2.417969,0 4.796875,0.613281 6.792969,1.839843 v -4.988281 c -2.070312,-0.765625 -4.105469,-1.074219 -6.871094,-1.074219 -4.644531,0 -8.097656,2.839844 -8.097656,6.640626 0,3.605468 2.226562,5.027343 5.488281,6.679687 3.378907,1.648437 5.414063,2.6875 5.414063,4.335937 0,1.574219 -1.5,2.570313 -3.839844,2.570313 -2.800781,0 -5.144531,-0.804687 -7.371094,-2.492187 l 2.238282,6.203124 c 1.355468,0.308594 2.863281,0.476563 4.632812,0.476563 6.410156,0 9.675781,-2.765625 9.675781,-7.179687 0,-3.570313 -2.613281,-5.257813 -6.066406,-6.988282"
       style="fill:#194c9c;fill-opacity:1;fill-rule:nonzero;stroke:none"
       inkscape:connector-curvature="0" />
    <path
       id="path4783"
       d="m 34.628906,38.273438 -1.996094,-6.105469 h -8.140624 l -2.03125,6.105469 h -5.453126 l 8.597657,-23.644532 h 5.988281 l 8.523438,23.644532 z m -6.105468,-18.695313 -2.917969,8.945313 h 5.875 z m 0,0"
       style="fill:#194c9c;fill-opacity:1;fill-rule:nonzero;stroke:none"
       inkscape:connector-curvature="0" />
  </g>
  <g
     aria-label="Virtual
Observatory"
     style="font-style:normal;font-variant:normal;font-weight:normal;font-stretch:normal;font-size:61.66332245px;line-height:1.25;font-family:'Martel Sans';-inkscape-font-specification:'Martel Sans';letter-spacing:0px;word-spacing:0px;fill:#194c9c;fill-opacity:1;stroke:none;stroke-width:2.56930518"
     id="text4808">
    <path
       d="M 60.915243,426.26013 49.754182,459.31167 38.531457,426.26013 h -9.927795 l 16.094127,42.30104 h 9.989458 l 16.032464,-42.30104 z"
       style="fill:#194c9c;fill-opacity:1;stroke-width:2.56930518"
       id="path4812" />
    <path
       d="m 81.627376,427.61673 c 3.021503,0 5.549699,-2.46654 5.549699,-5.48804 0,-3.0215 -2.528196,-5.48803 -5.549699,-5.48803 -3.021503,0 -5.488036,2.46653 -5.488036,5.48803 0,3.0215 2.466533,5.48804 5.488036,5.48804 z m -4.686412,40.57446 h 9.434488 v -34.53146 h -9.434488 z"
       style="fill:#194c9c;fill-opacity:1;stroke-width:2.56930518"
       id="path4814" />
    <path
       d="m 117.77846,432.91977 c -4.1931,0 -8.07789,1.17161 -12.51765,4.93307 l -1.47992,-4.19311 h -7.029619 v 34.53146 h 9.434489 v -23.80204 c 4.56309,-2.09655 7.8929,-2.46653 11.5927,-2.46653 z"
       style="fill:#194c9c;fill-opacity:1;stroke-width:2.56930518"
       id="path4816" />
    <path
       d="m 145.71388,460.23662 c -1.72657,0.98662 -3.57647,1.54159 -5.48804,1.60325 -3.0215,0.0617 -4.62475,-1.60325 -4.62475,-6.41299 V 440.4427 h 9.86614 v -6.78297 h -9.86614 v -8.69453 h -5.67302 l -2.65152,9.06451 -6.35133,2.40487 v 4.00812 h 5.24139 v 17.1424 c 0,6.96796 3.82312,11.0994 12.271,11.0994 2.83651,0 6.22799,-0.73996 8.81785,-2.5282 z"
       style="fill:#194c9c;fill-opacity:1;stroke-width:2.56930518"
       id="path4818" />
    <path
       d="M 175.35563,433.65973 V 459.435 c -2.28154,1.54158 -4.74808,2.58986 -7.15295,2.58986 -3.94645,0 -5.05639,-2.03489 -5.05639,-7.58459 v -20.8422 h -9.43449 v 22.0138 c 0,7.83125 2.15822,13.31928 11.46938,13.31928 3.88479,0 7.64625,-1.23326 11.5927,-3.76146 l 1.04828,2.95984 h 7.02962 v -34.53146 z"
       style="fill:#194c9c;fill-opacity:1;stroke-width:2.56930518"
       id="path4820" />
    <path
       d="m 226.22593,461.46989 c -0.92495,0.24665 -1.66491,0.36998 -2.40487,0.36998 -1.60324,0 -2.28154,-0.73996 -2.28154,-2.5282 V 446.4857 c 0,-10.35944 -4.50142,-13.62759 -11.71603,-13.62759 -6.65964,0 -12.20934,2.40487 -17.01908,5.5497 l 2.09656,6.41298 c 4.99472,-3.6998 8.50953,-4.99473 11.96268,-4.99473 3.51481,0 5.30305,2.09656 5.30305,6.10467 v 0.80163 l -2.58986,0.73996 c -10.72942,3.08316 -17.01908,5.05639 -17.01908,12.82597 0,4.68641 3.82312,8.44787 9.43449,8.44787 4.1931,0 7.58459,-1.60324 10.85274,-4.00811 1.29493,3.14483 4.19311,4.00811 7.64625,3.94645 2.40487,0 4.06978,-0.30832 6.10467,-0.80162 z m -24.23368,-2.34321 c 0,-2.71318 2.03489,-4.25477 8.5712,-6.47464 l 1.60325,-0.55497 v 7.09128 c -2.5282,1.66491 -4.74808,2.77485 -7.02962,2.77485 -2.09656,0 -3.14483,-0.86329 -3.14483,-2.83652 z"
       style="fill:#194c9c;fill-opacity:1;stroke-width:2.56930518"
       id="path4822" />
    <path
       d="m 232.24196,468.19119 h 9.43449 v -49.33066 h -9.43449 z"
       style="fill:#194c9c;fill-opacity:1;stroke-width:2.56930518"
       id="path4824" />
    <path
       d="m 52.899011,546.07197 c 14.614207,0 22.198796,-9.9278 22.198796,-21.76715 0,-11.65437 -7.584589,-21.70549 -22.198796,-21.70549 -14.614207,0 -22.198796,9.98945 -22.198796,21.70549 0,11.77769 7.584589,21.76715 22.198796,21.76715 z m 0,-7.09128 c -8.016232,0 -12.455991,-6.35133 -12.455991,-14.67587 0,-8.26289 4.439759,-14.61421 12.455991,-14.61421 8.016232,0 12.455991,6.35132 12.455991,14.61421 0,8.32454 -4.439759,14.67587 -12.455991,14.67587 z"
       style="fill:#194c9c;fill-opacity:1;stroke-width:2.56930518"
       id="path4826" />
    <path
       d="m 101.26522,509.93726 c -3.268161,0 -6.104674,0.92495 -8.44788,2.34321 v -16.34078 h -9.434488 v 49.33066 h 6.782965 l 0.986613,-2.21988 c 2.281543,1.60324 5.364709,3.0215 9.18784,3.0215 8.75619,0 16.71076,-5.30305 16.71076,-18.31401 0,-11.71603 -6.59798,-17.8207 -15.78581,-17.8207 z m -2.034894,29.29008 c -2.651523,0 -4.748076,-0.80162 -6.412986,-1.78824 v -18.49899 c 2.281543,-1.47992 4.439759,-2.15822 7.3996,-2.15822 3.76146,0 7.27627,2.40487 7.27627,10.97607 0,7.46126 -2.46653,11.46938 -8.262884,11.46938 z"
       style="fill:#194c9c;fill-opacity:1;stroke-width:2.56930518"
       id="path4828" />
    <path
       d="m 134.49404,546.07197 c 10.17445,0 15.53916,-4.19311 15.53916,-11.03774 0,-11.77769 -17.69737,-9.55781 -17.69737,-15.16917 0,-2.09656 2.21988,-3.08317 5.61136,-3.08317 3.08317,0 5.85801,0.73996 8.63286,1.97323 l 1.97323,-6.59798 c -3.0215,-1.41825 -7.15294,-2.21988 -10.85274,-2.21988 -8.81786,0 -14.67587,3.63814 -14.67587,11.03774 0,10.4211 17.69737,9.12617 17.69737,14.67587 0,2.58986 -2.83651,3.63813 -6.35132,3.63813 -3.51481,0 -6.72131,-0.80162 -10.23611,-2.21988 l -1.91157,6.53632 c 3.08317,1.41825 7.52293,2.46653 12.271,2.46653 z"
       style="fill:#194c9c;fill-opacity:1;stroke-width:2.56930518"
       id="path4830" />
    <path
       d="m 173.10203,539.289 c -5.73469,0 -8.20122,-3.6998 -8.44788,-10.23611 h 21.82882 c 0.49331,-1.66491 0.73996,-3.51481 0.73996,-4.99473 -0.0617,-8.94118 -5.11806,-14.1209 -14.1209,-14.1209 -12.02435,0 -17.75904,7.70792 -17.75904,18.12902 0,9.98946 5.5497,18.00569 17.75904,18.00569 5.48803,0 9.43449,-1.72657 13.4426,-5.17972 l -2.71318,-5.98134 c -3.26816,2.46653 -6.47465,4.37809 -10.72942,4.37809 z m -0.55497,-23.00042 c 3.20649,0 5.48803,1.91157 5.5497,5.73469 v 0.86329 h -12.88764 c 0.92495,-3.88479 3.14483,-6.59798 7.46127,-6.59798 z"
       style="fill:#194c9c;fill-opacity:1;stroke-width:2.56930518"
       id="path4832" />
    <path
       d="m 216.05437,509.99893 c -4.1931,0 -8.07789,1.1716 -12.51765,4.93306 l -1.47992,-4.1931 h -7.02962 v 34.53146 h 9.43449 V 521.4683 c 4.56308,-2.09655 7.8929,-2.46653 11.5927,-2.46653 z"
       style="fill:#194c9c;fill-opacity:1;stroke-width:2.56930518"
       id="path4834" />
    <path
       d="m 244.91474,510.73889 -8.38621,25.34362 -8.38622,-25.34362 h -9.61947 l 13.31927,34.90144 h 9.18784 l 13.31928,-34.90144 z"
       style="fill:#194c9c;fill-opacity:1;stroke-width:2.56930518"
       id="path4836" />
    <path
       d="m 291.14103,538.54904 c -0.92495,0.24666 -1.66491,0.36998 -2.40487,0.36998 -1.60324,0 -2.28154,-0.73996 -2.28154,-2.52819 v -12.82597 c 0,-10.35944 -4.50142,-13.6276 -11.71603,-13.6276 -6.65964,0 -12.20934,2.40487 -17.01908,5.5497 l 2.09656,6.41299 c 4.99472,-3.6998 8.50953,-4.99473 11.96268,-4.99473 3.51481,0 5.30305,2.09655 5.30305,6.10467 v 0.80162 l -2.58986,0.73996 c -10.72942,3.08317 -17.01908,5.05639 -17.01908,12.82597 0,4.68641 3.82312,8.44788 9.43449,8.44788 4.1931,0 7.58459,-1.60325 10.85274,-4.00812 1.29493,3.14483 4.19311,4.00812 7.64625,3.94645 2.40487,0 4.06978,-0.30831 6.10467,-0.80162 z m -24.23368,-2.3432 c 0,-2.71319 2.03489,-4.25477 8.5712,-6.47465 l 1.60325,-0.55497 v 7.09128 c -2.5282,1.66491 -4.74808,2.77485 -7.02962,2.77485 -2.09656,0 -3.14483,-0.86329 -3.14483,-2.83651 z"
       style="fill:#194c9c;fill-opacity:1;stroke-width:2.56930518"
       id="path4838" />
    <path
       d="m 317.9376,537.31578 c -1.72657,0.98661 -3.57647,1.54158 -5.48803,1.60324 -3.02151,0.0617 -4.62475,-1.60324 -4.62475,-6.41298 v -14.98419 h 9.86613 v -6.78296 h -9.86613 v -8.69453 h -5.67303 l -2.65152,9.06451 -6.35132,2.40486 v 4.00812 h 5.24138 v 17.1424 c 0,6.96796 3.82313,11.0994 12.271,11.0994 2.83651,0 6.228,-0.73996 8.81786,-2.52819 z"
       style="fill:#194c9c;fill-opacity:1;stroke-width:2.56930518"
       id="path4840" />
    <path
       d="m 341.23093,546.07197 c 12.02435,0 17.8207,-8.69453 17.8207,-18.12902 0,-9.37282 -5.79635,-18.00569 -17.8207,-18.00569 -11.96268,0 -17.75903,7.70792 -17.75903,18.12902 0,10.11278 5.79635,18.00569 17.75903,18.00569 z m 0.0617,-6.78297 c -5.79635,0 -8.26289,-4.06978 -8.26289,-11.28438 0,-7.15295 2.46654,-11.22273 8.26289,-11.22273 5.73469,0 8.20122,4.06978 8.20122,11.22273 0,7.2146 -2.46653,11.28438 -8.20122,11.28438 z"
       style="fill:#194c9c;fill-opacity:1;stroke-width:2.56930518"
       id="path4842" />
    <path
       d="m 387.79638,509.99893 c -4.19311,0 -8.0779,1.1716 -12.51766,4.93306 l -1.47992,-4.1931 h -7.02961 v 34.53146 h 9.43448 V 521.4683 c 4.56309,-2.09655 7.89291,-2.46653 11.59271,-2.46653 z"
       style="fill:#194c9c;fill-opacity:1;stroke-width:2.56930518"
       id="path4844" />
    <path
       d="m 417.45837,510.73889 -8.26289,25.40528 -8.5712,-25.40528 h -9.61948 l 14.24423,36.87466 c -2.21988,4.43976 -4.93307,6.10467 -8.75619,6.10467 -1.47992,0 -3.26816,-0.30832 -5.30305,-0.92495 l -0.6783,6.96796 c 1.97323,0.73996 4.80974,1.10994 7.02962,1.10994 6.65964,0 11.7777,-2.89818 14.67587,-11.03774 l 14.73754,-39.09454 z"
       style="fill:#194c9c;fill-opacity:1;stroke-width:2.56930518"
       id="path4846" />
  </g>
</svg>
